<svg width="150" height="150" viewBox="0 0 150 150" fill="none" xmlns="http://www.w3.org/2000/svg">
<rect x="0.5" y="0.5" width="149" height="149" rx="74.5" fill="#8A8CCE" fill-opacity="0.16"/>
<path d="M105 89.7333V101.52C105 102.364 104.681 103.177 104.105 103.794C103.53 104.411 102.742 104.788 101.9 104.847C100.443 104.947 99.2533 105 98.3333 105C68.8767 105 45 81.1233 45 51.6667C45 50.7467 45.05 49.5567 45.1533 48.1C45.2124 47.2581 45.5886 46.47 46.206 45.8947C46.8234 45.3194 47.6361 44.9996 48.48 45H60.2667C60.6801 44.9996 61.079 45.1529 61.3858 45.4301C61.6925 45.7073 61.8853 46.0886 61.9267 46.5C62.0033 47.2667 62.0733 47.8767 62.14 48.34C62.8024 52.9631 64.16 57.4594 66.1667 61.6767C66.4833 62.3433 66.2767 63.14 65.6767 63.5667L58.4833 68.7067C62.8815 78.9548 71.0485 87.1218 81.2967 91.52L86.43 84.34C86.6398 84.0467 86.9459 83.8363 87.295 83.7455C87.644 83.6547 88.0139 83.6894 88.34 83.8433C92.5567 85.8462 97.0519 87.2004 101.673 87.86C102.137 87.9267 102.747 88 103.507 88.0733C103.917 88.1155 104.298 88.3086 104.575 88.6153C104.851 88.922 105.004 89.3204 105.003 89.7333H105Z" fill="#8A8CCE"/>
<rect x="0.5" y="0.5" width="149" height="149" rx="74.5" stroke="#4D4D4D"/>
</svg>
